<svg id="Layer_2" xmlns="http://www.w3.org/2000/svg" viewBox="0 0 240.46 246.42"><polygon points="15 133.4 15 20.16 0 .24 0 141.35 15 133.4"/><polygon points="0 217.35 0 246.19 15 226.28 15 204.75 0 217.35"/><polygon points="34.78 218.39 27.56 245.67 240.46 122.53 213.2 115.19 34.78 218.39"/><polygon points="169.28 105.72 212.57 130.88 239.85 123.6 188.39 93.69 169.28 105.72"/><polygon points="133.72 85.05 157.37 75.65 27.21 0 34.38 27.3 133.72 85.05"/><polygon points="47 119.5 47 20.39 27 .47 27 127.44 47 119.5"/><polygon points="27 195.31 27 246.42 47 226.5 47 182.71 27 195.31"/><polygon points="0 136.36 0 148.44 118.31 91.91 0 136.36"/><polygon points="0 201.48 0 217.91 149.1 116.75 0 201.48"/></svg>
